HIERARCHY
ROOT root
{
	OFFSET	0	13.1	24.9
	CHANNELS 6  Xposition Yposition Zposition Xrotation Yrotation Zrotation
	JOINT spine_1
	{
		OFFSET	0	9.99999	0
		CHANNELS 3  Xrotation Yrotation Zrotation
		JOINT spine_2
		{
			OFFSET	0	112	-10
			CHANNELS 3  Xrotation Yrotation Zrotation
			JOINT spine_3
			{
				OFFSET	0	206.5	19.3
				CHANNELS 3  Xrotation Yrotation Zrotation
				JOINT spine_4
				{
					OFFSET	0	110.4	14.6
					CHANNELS 3  Xrotation Yrotation Zrotation
					JOINT neck_1
					{
						OFFSET	0	71.8	-50.3
						CHANNELS 3  Xrotation Yrotation Zrotation
						JOINT neck_2
						{
							OFFSET	0	86.2	-25.8
							CHANNELS 3  Xrotation Yrotation Zrotation
							JOINT head_ee
							{
								OFFSET	0	179.8	-8.7
								CHANNELS 3  Xrotation Yrotation Zrotation
								End Site
								{
									OFFSET	1	0	0
								}
							}
						}
					}
					JOINT left_clavicle
					{
						OFFSET	-43.2	22.4	-70.8
						CHANNELS 3  Xrotation Yrotation Zrotation
						JOINT left_shoulder
						{
							OFFSET	-93.9	-5.79999	48.7
							CHANNELS 3  Xrotation Yrotation Zrotation
							JOINT left_elbow
							{
								OFFSET	-291.4	-30.8	15.2
								CHANNELS 3  Xrotation Yrotation Zrotation
								JOINT left_lowarm_twist
								{
									OFFSET	-110.7	-3.89999	13.6
									CHANNELS 3  Xrotation Yrotation Zrotation
									JOINT left_hand
									{
										OFFSET	-110.7	-3.89999	13.6
										CHANNELS 3  Xrotation Yrotation Zrotation
										JOINT left_ee
										{
											OFFSET	-80.8	-5.10001	12.1
											CHANNELS 3  Xrotation Yrotation Zrotation
											End Site
											{
												OFFSET	1	0	0
											}
										}
									}
								}
							}
						}
					}
					JOINT right_clavicle
					{
						OFFSET	43.2	22.4	-70.8
						CHANNELS 3  Xrotation Yrotation Zrotation
						JOINT right_shoulder
						{
							OFFSET	93.9	-5.79999	48.7
							CHANNELS 3  Xrotation Yrotation Zrotation
							JOINT right_elbow
							{
								OFFSET	291.4	-30.8	15.2
								CHANNELS 3  Xrotation Yrotation Zrotation
								JOINT right_lowarm_twist
								{
									OFFSET	110.7	-3.89999	13.6
									CHANNELS 3  Xrotation Yrotation Zrotation
									JOINT right_hand
									{
										OFFSET	110.7	-3.89999	13.6
										CHANNELS 3  Xrotation Yrotation Zrotation
										JOINT right_ee
										{
											OFFSET	80.8	-5.10001	12.1
											CHANNELS 3  Xrotation Yrotation Zrotation
											End Site
											{
												OFFSET	1	0	0
											}
										}
									}
								}
							}
						}
					}
				}
			}
		}
	}
	JOINT left_hip
	{
		OFFSET	-82.8	-127.5	0.300001
		CHANNELS 3  Xrotation Yrotation Zrotation
		JOINT left_knee
		{
			OFFSET	-28.2	-396.7	2.2
			CHANNELS 3  Xrotation Yrotation Zrotation
			JOINT left_ankle
			{
				OFFSET	-11.7	-411.3	35.4
				CHANNELS 3  Xrotation Yrotation Zrotation
				JOINT left_toes
				{
					OFFSET	0	-60	-88.6
					CHANNELS 3  Xrotation Yrotation Zrotation
					JOINT left_foot_ee
					{
						OFFSET	-22.5	-16.5	-42.2
						CHANNELS 3  Xrotation Yrotation Zrotation
						End Site
						{
							OFFSET	1	0	0
						}
					}
				}
			}
		}
	}
	JOINT right_hip
	{
		OFFSET	82.8	-127.5	0.300001
		CHANNELS 3  Xrotation Yrotation Zrotation
		JOINT right_knee
		{
			OFFSET	28.2	-396.7	2.2
			CHANNELS 3  Xrotation Yrotation Zrotation
			JOINT right_ankle
			{
				OFFSET	11.7	-411.3	35.4
				CHANNELS 3  Xrotation Yrotation Zrotation
				JOINT right_toes
				{
					OFFSET	0	-60	-88.6
					CHANNELS 3  Xrotation Yrotation Zrotation
					JOINT right_foot_ee
					{
						OFFSET	22.5	-16.5	-42.2
						CHANNELS 3  Xrotation Yrotation Zrotation
						End Site
						{
							OFFSET	1	0	0
						}
					}
				}
			}
		}
	}
}
MOTION
Frames: 11
Frame Time: 0.02
2702.97 709.566 -958.24 -27.7155 53.1354 19.4376 5.57541 -0.198075 0.518665 5.57553 -0.230677 0.50501 5.57339 -0.286864 0.475349 5.57314 -0.208193 0.514687 -1.82558 15.6903 3.36478 -1.46168 25.7194 5.5029 -0.0 0.0 -0.0 5.4477 11.0949 10.6189 -43.6477 -24.7908 63.9377 0.535862 -14.8665 0.069913 64.0066 -2.14332 -7.46485 -0.659015 20.0905 4.17263 -0.0 0.0 -0.0 11.1024 9.12799 -22.2653 -11.4722 27.2266 -56.0149 1.93495 43.7819 -0.77755 30.9311 -0.0366399 3.90346 -0.13069 18.3582 8.69106 0.0 0.0 0.0 48.652 -7.50201 -1.84021 -14.396 0.320292 2.18023 36.4381 -33.3713 -5.80423 40.1893 -0.0 -0.0 -0.0 0.0 -0.0 21.822 -16.4325 19.0674 -40.6459 0.508369 -6.08845 39.3311 19.8977 5.28863 30.626 -0.0 -0.0 0.0 0.0 0.0 
2680.36 706.628 -956.589 -26.5546 51.4473 18.67 5.50333 -0.238719 0.513728 5.50344 -0.270924 0.497498 5.50099 -0.326576 0.462874 5.50078 -0.249376 0.50864 -1.7528 15.9064 3.53023 -1.37571 25.9652 5.68839 -0.0 0.0 -0.0 5.92748 10.9889 11.4552 -42.4757 -25.0619 64.049 0.547077 -15.1634 0.0728185 63.9743 -2.14025 -7.46208 -0.665164 20.304 4.22416 -0.0 0.0 -0.0 10.9781 8.77726 -21.9892 -12.4457 26.7673 -56.2244 1.89594 43.1996 -0.750708 30.5132 -0.050208 3.85181 -0.143122 18.1311 8.6789 0.0 0.0 0.0 48.0662 -7.66299 -2.05155 -15.314 0.322011 2.32106 36.3095 -33.5374 -5.80338 40.1366 -0.0 -0.0 -0.0 0.0 -0.0 21.641 -15.0566 19.6452 -41.6583 0.575627 -6.22885 39.8758 19.5988 5.32541 30.8489 -0.0 -0.0 0.0 0.0 0.0 
2649.68 715.959 -955.208 -23.1892 49.1657 15.0572 5.17724 -0.00361747 0.487463 5.17738 -0.0346283 0.486245 5.17697 -0.0932614 0.478472 5.17665 -0.0165261 0.487196 -3.57947 16.4453 5.17411 -3.29647 26.1034 7.80832 -0.0 0.0 -0.0 5.86411 11.9 11.3252 -41.5472 -25.3266 63.5666 0.62365 -17.168 0.094141 63.4016 -2.08594 -7.41261 -0.739179 19.518 3.45722 -0.0 0.0 -0.0 10.8252 8.4842 -21.6509 -15.2573 25.7244 -56.4975 1.81392 41.9377 -0.695216 29.4424 -0.0832512 3.71903 -0.185572 17.3453 8.63326 0.0 0.0 0.0 48.2902 -7.3584 -1.53446 -20.0201 0.2954 3.04243 36.192 -32.0497 -5.67448 40.1801 -0.0 -0.0 -0.0 0.0 -0.0 18.4145 -9.52401 21.2024 -40.2736 0.484264 -6.03654 37.3392 17.5141 5.00839 30.9198 -0.0 -0.0 0.0 0.0 0.0 
2620.85 709.624 -960.996 -21.2017 47.9694 12.4699 5.23796 0.159468 0.469657 5.23808 0.12926 0.478853 5.23905 0.0708535 0.490905 5.23874 0.147493 0.473554 -5.28515 16.8436 6.59841 -5.07644 26.1939 9.64382 -0.0 0.0 -0.0 5.86504 12.1198 11.3217 -40.538 -25.5701 63.0565 0.684538 -18.7319 0.112908 62.9308 -2.04168 -7.37154 -0.778423 18.7871 2.91538 -0.0 0.0 -0.0 10.8386 9.12292 -21.6819 -17.0893 24.9604 -56.4996 1.70567 40.1924 -0.624099 28.6986 -0.10474 3.62645 -0.26568 16.0189 8.61395 0.0 0.0 0.0 47.1559 -6.72393 -0.260764 -24.2724 0.22051 3.6905 36.1686 -31.0346 -5.59761 40.1846 -0.0 -0.0 -0.0 0.0 -0.0 17.2501 -5.27081 21.3522 -39.2813 0.421675 -5.89741 35.5004 16.1796 4.78298 30.5425 -0.0 -0.0 0.0 0.0 0.0 
2600.47 721.643 -966.925 -19.5365 46.132 10.7131 5.29037 0.298324 0.417259 5.29043 0.271168 0.435396 5.29243 0.21739 0.46459 5.29224 0.288034 0.424427 -6.47885 17.112 7.59844 -6.31365 26.274 10.9244 -0.0 0.0 -0.0 5.86712 12.2049 11.3232 -39.7105 -25.7475 62.538 0.728732 -19.8492 0.127508 62.605 -2.01126 -7.34292 -0.804118 18.2264 2.52375 -0.0 0.0 -0.0 10.9328 9.60523 -21.8895 -18.3522 24.49 -56.8791 1.62834 38.8878 -0.574866 28.1772 -0.119086 3.56139 -0.322985 15.0384 8.58718 0.0 0.0 0.0 46.2351 -6.1809 1.42288 -27.2559 0.139353 4.14112 36.1343 -30.31 -5.54307 40.1639 -0.0 -0.0 -0.0 0.0 -0.0 16.061 -2.46507 21.0874 -38.6719 0.384442 -5.81146 34.209 15.25 4.62344 30.282 -0.0 -0.0 0.0 0.0 0.0 
2574.28 715.601 -971.858 -18.1616 45.1876 9.02632 5.34918 0.377947 0.561619 5.34929 0.341444 0.58453 5.35265 0.270065 0.620744 5.3523 0.364709 0.570304 -7.27776 17.2979 8.30811 -7.13639 26.328 11.8208 -0.0 0.0 -0.0 6.04685 12.2891 11.6294 -38.5311 -25.9681 61.9776 0.769068 -20.8555 0.141537 62.3597 -1.98845 -7.32125 -0.816287 17.7089 2.23051 -0.0 0.0 -0.0 11.0252 9.87356 -22.0936 -20.018 23.8467 -57.3488 1.51283 36.8459 -0.503951 27.8254 -0.128429 3.51743 -0.378296 14.1596 8.59004 0.0 0.0 0.0 45.4101 -5.9416 2.46231 -29.412 0.0661398 4.4639 36.0224 -29.7634 -5.49389 40.1286 -0.0 -0.0 -0.0 0.0 -0.0 14.9383 -0.51266 20.7495 -38.4968 0.373916 -5.7867 33.2989 14.6463 4.51179 30.0993 -0.0 -0.0 0.0 0.0 0.0 
2549.04 723.013 -984.825 -16.7787 45.6345 7.73029 5.20013 0.254006 0.665704 5.20035 0.211132 0.680517 5.20264 0.127492 0.701017 5.20204 0.236602 0.672087 -7.84181 17.4706 8.92158 -7.70993 26.3739 12.571 -0.0 0.0 -0.0 5.64983 11.9089 10.9564 -37.5406 -25.2222 61.7066 0.795073 -21.4972 0.150931 61.474 -1.9069 -7.24221 -0.838989 16.8333 1.71904 -0.0 0.0 -0.0 11.6579 10.4049 -23.5055 -21.6977 22.7506 -57.95 1.08717 28.304 -0.274135 27.3257 -0.141239 3.45487 -0.208257 14.1671 7.43982 0.0 0.0 0.0 40.943 -7.56971 3.10558 -31.7258 -0.0258984 4.80704 37.4499 -29.2485 -5.60997 40.1616 -0.0 -0.0 -0.0 0.0 -0.0 13.9775 1.377 20.3159 -38.922 0.399614 -5.84679 32.7741 12.7956 4.40652 29.7445 -0.0 -0.0 0.0 0.0 0.0 
2514.78 729.664 -998.459 -15.5999 46.5695 6.42005 5.0768 0.182978 0.748895 5.0771 0.134955 0.75902 5.07862 0.0407276 0.769847 5.07782 0.161796 0.753755 -8.23629 17.7265 9.29112 -8.11524 26.7094 13.0688 -0.0 0.0 -0.0 5.87379 12.1051 11.3371 -35.1999 -24.6374 59.694 0.814462 -21.972 0.158111 60.4722 -1.81614 -7.15131 -1.07776 15.3867 -0.374951 -0.0 0.0 -0.0 12.0969 10.7686 -24.4957 -22.8227 21.9017 -58.5401 0.718467 19.591 -0.124044 27.0476 -0.148129 3.42002 -0.198137 12.4111 6.62361 0.0 0.0 0.0 38.3555 -8.37257 5.3635 -32.191 -0.046074 4.87557 36.8947 -28.691 -5.51594 39.5317 -0.0 -0.0 -0.0 0.0 -0.0 12.1972 4.16262 17.9008 -41.3618 0.555671 -6.18785 33.3381 10.721 4.41451 29.948 -0.0 -0.0 0.0 0.0 0.0 
2499.3 729.006 -1001.41 -14.8658 47.1685 5.68452 4.99793 0.087741 0.823097 4.99831 0.0351892 0.827011 4.99849 -0.0677962 0.824979 4.99755 0.0633401 0.825333 -8.49271 17.9564 9.5303 -8.38036 27.0515 13.4076 -0.0 0.0 -0.0 6.03446 12.2457 11.6093 -32.7753 -24.456 58.2576 0.857892 -23.024 0.174731 59.7711 -1.7536 -7.08678 -1.22991 14.1955 -1.84889 -0.0 0.0 -0.0 12.1481 10.9683 -24.6113 -23.9333 21.1744 -59.2276 0.483502 13.4695 -0.0570961 26.8513 -0.15289 3.3954 -0.149002 11.1728 5.76212 0.0 0.0 0.0 34.9964 -9.56809 6.0154 -32.5365 -0.0614169 4.92636 36.5173 -28.2327 -5.44742 39.0916 -0.0 -0.0 -0.0 0.0 -0.0 11.9116 6.54906 15.8626 -42.8497 0.657945 -6.39254 33.7024 9.31777 4.42114 30.0783 -0.0 -0.0 0.0 0.0 0.0 
2476.89 728.193 -1009.83 -13.8655 48.2424 5.92766 4.94139 0.020912 0.745969 4.9417 -0.026597 0.745788 4.9411 -0.119758 0.736591 4.94034 -0.00192801 0.74626 -8.69463 18.1016 9.70897 -8.58951 27.2615 13.6578 -0.0 0.0 -0.0 5.94062 12.2765 11.4475 -31.3161 -24.2518 56.9154 0.889346 -23.7759 0.187223 59.2775 -1.71003 -7.04088 -1.33319 13.3293 -2.88624 -0.0 0.0 -0.0 12.1446 11.202 -24.6025 -24.6417 20.7107 -59.5411 0.327263 9.20866 -0.0263558 26.7153 -0.156142 3.37833 -0.112675 10.297 5.14188 0.0 0.0 0.0 32.6891 -10.3431 6.81184 -32.6892 -0.0682971 4.94878 36.273 -27.9167 -5.40217 38.7776 -0.0 -0.0 -0.0 0.0 -0.0 11.7237 8.32498 14.387 -44.128 0.750054 -6.56626 33.9341 8.33083 4.4248 30.1694 -0.0 -0.0 0.0 0.0 0.0 
2455.7 729.975 -1015.21 -13.7324 48.685 6.07957 4.93328 -0.0304705 0.721137 4.93356 -0.0762954 0.717737 4.93237 -0.165664 0.702513 4.93169 -0.0526393 0.719859 -8.84439 17.6719 8.57319 -8.81012 27.2807 12.5044 -0.0 0.0 -0.0 5.93111 12.6202 11.4221 -29.1694 -23.776 55.6623 1.02485 -26.9154 0.245251 59.218 -1.7048 -7.03532 -1.3124 12.5657 -3.10236 -0.0 0.0 -0.0 11.2433 11.4788 -22.5669 -25.6282 21.2045 -61.3367 0.284046 8.00959 -0.0198864 26.0801 -0.170783 3.29851 -0.0166614 9.74627 4.25638 0.0 0.0 0.0 26.5531 -8.23228 7.41162 -30.1229 0.0393393 4.56971 37.2039 -28.7233 -5.55011 38.7695 -0.0 -0.0 -0.0 0.0 -0.0 12.5569 11.2383 11.987 -46.3096 0.916165 -6.85793 34.0995 7.52327 4.42631 30.2006 -0.0 -0.0 0.0 0.0 0.0 
